<svg width="24" height="25" viewBox="0 0 24 25" fill="none" xmlns="http://www.w3.org/2000/svg">
<path d="M6 9.375H2V21.875H6V9.375Z" stroke="#303030" stroke-width="2" stroke-linecap="round" stroke-linejoin="round"/>
<path d="M16 8.33325C17.5913 8.33325 19.1174 8.99173 20.2426 10.1638C21.3679 11.3359 22 12.9256 22 14.5833V21.8749H18V14.5833C18 14.0307 17.7893 13.5008 17.4142 13.1101C17.0391 12.7194 16.5304 12.4999 16 12.4999C15.4696 12.4999 14.9609 12.7194 14.5858 13.1101C14.2107 13.5008 14 14.0307 14 14.5833V21.8749H10V14.5833C10 12.9256 10.6321 11.3359 11.7574 10.1638C12.8826 8.99173 14.4087 8.33325 16 8.33325V8.33325Z" stroke="#303030" stroke-width="2" stroke-linecap="round" stroke-linejoin="round"/>
<path d="M4 6.24992C5.10457 6.24992 6 5.31718 6 4.16659C6 3.01599 5.10457 2.08325 4 2.08325C2.89543 2.08325 2 3.01599 2 4.16659C2 5.31718 2.89543 6.24992 4 6.24992Z" stroke="#303030" stroke-width="2" stroke-linecap="round" stroke-linejoin="round"/>
</svg>
